<svg width="32" height="32" fill="none" xmlns="http://www.w3.org/2000/svg"><circle cx="16" cy="16" r="16" fill="#FEA5BB"/><path d="M16 6.588c-5.17 0-9.412 4.243-9.412 9.412 0 4.412 3.096 8.419 7.206 9.412v-3.114c-.407.09-.782.092-1.197-.03-.556-.165-1.008-.535-1.343-1.1-.214-.36-.593-.752-.988-.723l-.097-1.099c.855-.073 1.594.521 2.033 1.259.195.328.42.52.708.605.278.082.577.043.926-.08.087-.698.407-.96.648-1.327-2.451-.366-3.428-1.666-3.816-2.693-.514-1.363-.238-3.066.67-4.142.018-.02.05-.076.038-.114-.417-1.259.09-2.3.11-2.41.48.142.558-.143 2.088.786l.264.159c.11.066.076.028.187.02A7.986 7.986 0 0 1 16 11.131a8.023 8.023 0 0 1 2.002.285l.086.009c-.008-.002.023-.006.075-.037 1.91-1.157 1.842-.779 2.354-.945.019.11.52 1.168.108 2.41-.056.172 1.656 1.74.707 4.257-.388 1.027-1.365 2.327-3.816 2.693.314.48.692.734.69 1.722v3.887c4.11-.993 7.206-5 7.206-9.412 0-5.17-4.242-9.412-9.412-9.412Z" fill="#fff"/></svg>